<?xml version="1.0" encoding="utf-8"?>
<!-- Generator: Adobe Illustrator 19.0.0, SVG Export Plug-In . SVG Version: 6.00 Build 0)  -->
<svg version="1.1" id="Layer_1" xmlns="http://www.w3.org/2000/svg" xmlns:xlink="http://www.w3.org/1999/xlink" x="0px" y="0px"
	 viewBox="0 0 612 300" style="enable-background:new 0 0 612 300;" xml:space="preserve">
<style type="text/css">
	.st0{fill:url(#XMLID_2_);}
	.st1{fill:url(#XMLID_49_);}
	.st2{fill:url(#XMLID_50_);}
	.st3{fill:url(#XMLID_51_);}
	.st4{fill:#AAAAAA;}
</style>
<g id="XMLID_3_">
	<linearGradient id="XMLID_2_" gradientUnits="userSpaceOnUse" x1="120.1961" y1="175.9911" x2="-4.0386" y2="51.7564">
		<stop  offset="0" style="stop-color:#2271B9"/>
		<stop  offset="1" style="stop-color:#4D8BC9"/>
	</linearGradient>
	<path id="XMLID_4_" class="st0" d="M116.3,46.3h-10.7v144.2H78.3L26.5,75.4v111.4h10.7v3.8h-32v-3.8h10.7V46.3H5.2v-3.8h43.2
		L95,145.3v-99H84.3v-3.8h32V46.3z M96.7,186.7L33.8,46.3h-9.4l62.9,140.4H96.7z"/>
	<linearGradient id="XMLID_49_" gradientUnits="userSpaceOnUse" x1="237.3017" y1="191.4973" x2="126.9546" y2="81.1502">
		<stop  offset="0" style="stop-color:#2271B9"/>
		<stop  offset="1" style="stop-color:#4D8BC9"/>
	</linearGradient>
	<path id="XMLID_7_" class="st1" d="M238.3,190.5h-55.6v-3.8h10.7l-7.7-42.9h-30.7l-8.6,42.9H157v3.8h-32.2v-3.8h10.7l30.1-144.2
		h34.2l27.8,144.2h10.7V190.5z M185.2,140.1l-14.2-80l-15.7,80H185.2z M210.5,186.7L183.5,46.3H175l26.9,140.4H210.5z"/>
	<linearGradient id="XMLID_50_" gradientUnits="userSpaceOnUse" x1="365.6115" y1="158.9721" x2="236.406" y2="29.7666">
		<stop  offset="0" style="stop-color:#2271B9"/>
		<stop  offset="1" style="stop-color:#4D8BC9"/>
	</linearGradient>
	<path id="XMLID_11_" class="st2" d="M349.8,170c0,6-4.7,11.1-14.1,15.3c-9.4,4.2-21.1,6.3-35,6.3c-14.1,0-25.8-2.1-35.2-6.3
		c-9.4-4.2-14.1-9.3-14.1-15.3v-23.8h34.2v33.1c0,5.6,5,8.5,15,8.5c9.9,0,14.8-2.8,14.8-8.5v-25.7c0-7-3.4-13.2-10.2-18.5
		l-42.8-32.9c-7.4-5.7-11.1-12-11.1-19V63.1c0-6,4.7-11.1,14.1-15.3c9.4-4.2,21.1-6.3,35.2-6.3c13.9,0,25.6,2.1,35,6.3
		c9.4,4.2,14.1,9.3,14.1,15.3v23.8h-34.2V53.8c0-5.6-4.9-8.5-14.8-8.5c-10,0-15,2.8-15,8.5v24.8c0,7,3.4,13.1,10.2,18.4l42.8,32.9
		c7.4,5.7,11.1,12.1,11.1,19.1V170z M332.6,173.4v-22.2c0-7.1-3.6-13.3-10.7-18.8l-42.8-32.8c-7.1-5.4-10.7-11.7-10.7-18.8V59
		c0-4.1,1.9-7.4,5.6-10.1c-9.5,3.2-14.2,7.4-14.2,12.7v20.2c0,7.1,3.6,13.4,10.7,18.9l42.8,32.7c7.1,5.4,10.7,11.7,10.7,18.8v24.2
		c0,4.3-2.2,7.7-6.7,10.3C327.6,183.5,332.6,179.1,332.6,173.4z M274.2,184.2c-3.8-2.7-5.6-6.1-5.6-10.2V150H260v21.6
		C260,176.8,264.7,181,274.2,184.2z M342.3,5.6l-33,31.8H293L260.6,5.6h9.8l31.1,15.1l31.3-15.1H342.3z M334.5,8.4h-2.1l-32.2,21.4
		L270,8.4h-2.3l30.5,25.4h4.2L334.5,8.4z M332.6,83.2V59.7c0-5.6-5.1-10.1-15.2-13.3c4.5,2.6,6.7,6.1,6.7,10.4v26.4H332.6z"/>
	<linearGradient id="XMLID_51_" gradientUnits="userSpaceOnUse" x1="475.585" y1="191.4973" x2="365.2379" y2="81.1502">
		<stop  offset="0" style="stop-color:#2271B9"/>
		<stop  offset="1" style="stop-color:#4D8BC9"/>
	</linearGradient>
	<path id="XMLID_18_" class="st3" d="M476.5,190.5H421v-3.8h10.7l-7.7-42.9h-30.7l-8.6,42.9h10.7v3.8h-32.2v-3.8h10.7l30.1-144.2
		h34.2l27.8,144.2h10.7V190.5z M423.5,140.1l-14.2-80l-15.7,80H423.5z M448.8,186.7L421.8,46.3h-8.6l26.9,140.4H448.8z"/>
</g>
<g id="XMLID_22_">
	<path id="XMLID_23_" class="st4" d="M98.2,296.4v-79.8h14.4v8.7c2.7-6.7,7.3-10,13.9-10c5.7,0,10.4,2.6,14.1,7.8
		c3.6,5.2,5.5,12.7,5.5,22.6c0,10.5-1.8,18.4-5.5,23.8c-3.7,5.3-8.5,8-14.4,8c-6,0-10.2-2.6-12.8-7.9v26.8H98.2z M113.3,250.1
		c0,4.2,0.2,7.1,0.7,8.7c0.5,1.6,1.4,3.1,2.9,4.3c1.5,1.3,3.1,1.9,4.8,1.9c2.1,0,4-1.2,5.7-3.7c1.7-2.5,2.5-7.9,2.5-16.3
		c0-11.8-2.8-17.7-8.3-17.7c-2.1,0-4,1-5.7,3.1c-1.7,2.1-2.6,5.6-2.6,10.6V250.1z"/>
	<path id="XMLID_26_" class="st4" d="M171.2,276.3h-15.1v-59.7h14.3v11.1c2.2-8.3,6-12.4,11.4-12.4c0.8,0,1.7,0.1,2.8,0.2v17.4
		c-3.2,0-5.6,0.6-7.4,1.7c-1.8,1.1-3.2,3.1-4.3,5.9c-1.1,2.9-1.7,6.7-1.7,11.6V276.3z"/>
	<path id="XMLID_28_" class="st4" d="M215.2,215.3c8.1,0,14.3,3,18.9,8.9c4.5,5.9,6.8,13.4,6.8,22.3c0,8.8-2.3,16.2-7,22.1
		c-4.7,5.9-10.9,8.8-18.7,8.8c-7.5,0-13.6-2.9-18.1-8.7s-6.8-13.3-6.8-22.5c0-6.3,1-11.7,3.1-16.2c2-4.4,4.8-8,8.4-10.7
		C205.3,216.7,209.8,215.3,215.2,215.3z M215.6,226.9c-3,0-5.2,1.3-6.7,3.9c-1.5,2.6-2.2,7.7-2.2,15.4c0,7.1,0.7,12.1,2.1,15.2
		s3.7,4.6,6.7,4.6c2.6,0,4.8-1.3,6.4-3.9c1.6-2.6,2.5-7.6,2.5-15c0-7.8-0.7-13.2-2.2-16C220.8,228.3,218.6,226.9,215.6,226.9z"/>
	<path id="XMLID_31_" class="st4" d="M295.7,195.6v80.7h-14.4v-9.3c-3.6,7.1-8.4,10.6-14.6,10.6c-5.8,0-10.4-2.7-13.8-8.1
		c-3.4-5.4-5.1-12.8-5.1-22.4c0-9.9,1.7-17.7,5.1-23.3c3.4-5.6,8.3-8.4,14.7-8.4c5.6,0,10,2.5,13,7.5v-27.2H295.7z M280.6,241.6
		c0-9.4-2.5-14.1-7.6-14.1c-6,0-9,6.6-9,19.9c0,11.8,2.8,17.7,8.5,17.7c2.2,0,4.1-1.1,5.7-3.2c1.6-2.1,2.4-5.2,2.4-9.1V241.6z"/>
	<path id="XMLID_34_" class="st4" d="M354.7,276.3h-15.1c-0.5-2.4-0.7-5.5-0.7-9.3c-2.7,4.3-5.3,7.1-7.9,8.5s-5.6,2.1-9,2.1
		c-5,0-9-1.5-12-4.5c-3.1-3-4.6-7.1-4.6-12.2c0-3.7,0.9-7.2,2.7-10.3c1.8-3.2,4.6-5.6,8.6-7.4c3.9-1.8,11.1-3.1,21.5-4v-3.4
		c0-5.8-2.6-8.7-7.7-8.7c-5.5,0-8.5,2.9-9.1,8.7L307,234c0.9-6.8,3.8-11.6,8.5-14.4c4.7-2.8,10.1-4.3,16.1-4.3c3.6,0,7,0.5,10.2,1.4
		c3.2,0.9,5.7,2.4,7.4,4.3c1.8,1.9,3,3.9,3.6,6c0.6,2.1,0.9,5.8,0.9,11v27.1C353.8,270.3,354.1,274,354.7,276.3z M338.2,247.7
		c-10.9,1.2-16.3,4.9-16.3,11.2c0,2.1,0.6,3.9,1.7,5.4c1.1,1.5,2.8,2.3,4.9,2.3c2.7,0,5.1-1.3,6.9-3.9c1.9-2.6,2.8-5.8,2.8-9.5
		V247.7z"/>
	<path id="XMLID_37_" class="st4" d="M407.4,216.6l-18.1,59.7h-12.1l-18.2-59.7h16.2l10.2,37.8l10.4-37.8H407.4z"/>
	<path id="XMLID_39_" class="st4" d="M460.1,276.3h-15.6v-33.5c0-4.1-0.1-6.8-0.4-8.3c-0.3-1.5-1-2.8-2-3.8c-1.1-1-2.4-1.6-4.1-1.6
		c-5.5,0-8.2,4.6-8.2,13.7v33.5h-15.6v-59.7h14.5v10.1c2.4-4.8,4.8-7.9,7.1-9.3c2.3-1.4,4.9-2.1,7.6-2.1c5,0,9.1,1.5,12.2,4.6
		c3.1,3.1,4.6,9.1,4.6,18V276.3z"/>
	<path id="XMLID_41_" class="st4" d="M488.6,193.9v17.6H473v-17.6H488.6z M488.6,216.6v59.7H473v-59.7H488.6z"/>
	<path id="XMLID_44_" class="st4" d="M547.9,253.9c-0.6,7.1-3.1,12.8-7.4,17.1c-4.3,4.4-10,6.5-16.8,6.5c-7.5,0-13.6-2.8-18.3-8.4
		c-4.7-5.6-7-13-7-22.4c0-9.3,2.4-16.9,7.2-22.7c4.8-5.8,11.2-8.7,19.2-8.7c6.5,0,11.8,2.2,16.1,6.6s6.6,9.8,7,16.4l-14.6,0.9
		c-0.5-7.2-3.2-10.8-8.3-10.8c-6.2,0-9.3,5.7-9.3,17.1c0,7.6,0.9,12.4,2.6,14.5c1.7,2,3.8,3.1,6.3,3.1c4.8,0,7.7-3.4,8.6-10.3
		L547.9,253.9z"/>
	<path id="XMLID_46_" class="st4" d="M602.5,276.3h-15.1c-0.5-2.4-0.7-5.5-0.7-9.3c-2.6,4.3-5.3,7.1-7.9,8.5c-2.6,1.4-5.6,2.1-9,2.1
		c-5,0-9-1.5-12-4.5c-3.1-3-4.6-7.1-4.6-12.2c0-3.7,0.9-7.2,2.7-10.3c1.8-3.2,4.6-5.6,8.6-7.4c3.9-1.8,11.1-3.1,21.5-4v-3.4
		c0-5.8-2.6-8.7-7.7-8.7c-5.5,0-8.5,2.9-9.1,8.7l-14.4-1.5c0.9-6.8,3.8-11.6,8.5-14.4c4.7-2.8,10.1-4.3,16.1-4.3
		c3.6,0,7,0.5,10.2,1.4c3.2,0.9,5.7,2.4,7.4,4.3c1.8,1.9,3,3.9,3.6,6c0.6,2.1,0.9,5.8,0.9,11v27.1
		C601.5,270.3,601.8,274,602.5,276.3z M585.9,247.7c-10.9,1.2-16.3,4.9-16.3,11.2c0,2.1,0.6,3.9,1.7,5.4c1.1,1.5,2.8,2.3,4.9,2.3
		c2.7,0,5.1-1.3,6.9-3.9s2.8-5.8,2.8-9.5V247.7z"/>
</g>
</svg>
