<?xml version="1.0" encoding="utf-8"?>
<!-- Generator: Adobe Illustrator 19.0.0, SVG Export Plug-In . SVG Version: 6.00 Build 0)  -->
<svg version="1.1" id="Layer_1" xmlns="http://www.w3.org/2000/svg" xmlns:xlink="http://www.w3.org/1999/xlink" x="0px" y="0px"
	 viewBox="0 0 200 60" style="enable-background:new 0 0 200 60;" xml:space="preserve">
<style type="text/css">
	.st0{opacity:0.32;}
	.st1{fill:#1D70BA;}
	.st2{fill:#444444;}
</style>
<g id="_2" class="st0">
	<path id="basket_empty_shop_buy" d="M138.7,21.2h-18.8l-7.5-19.7l-4.2,1.6l6.8,18.1H98.8l6.8-18.1l-4-1.6L94,21.2H75.2v4.5h2.6
		L82,55.5c0.2,1.1,1.1,2,2.3,1.9h45.3c1.1,0,2.1-0.8,2.3-1.9l4.2-29.8h2.6V21.2z M127.6,52.9H86.3l-3.9-27.2h49.2L127.6,52.9z"/>
</g>
<g id="XMLID_3_">
	<path id="XMLID_9_" class="st1" d="M29.9,31.6h-5.6L14.2,16.2c-0.6-0.9-1-1.6-1.2-2h-0.1c0.1,0.9,0.1,2.2,0.1,4v13.5H7.8V7h6
		L23.5,22c0.4,0.7,0.9,1.3,1.2,2h0.1c-0.1-0.6-0.1-1.7-0.1-3.4V7h5.2V31.6z"/>
	<path id="XMLID_38_" class="st1" d="M57.1,31.6h-6l-1.7-5.5h-8.7l-1.7,5.5h-6L41.8,7h6.6L57.1,31.6z M48.1,21.9l-2.6-8.2
		c-0.2-0.6-0.3-1.4-0.4-2.2h-0.1c-0.1,0.7-0.2,1.4-0.4,2.1l-2.7,8.3H48.1z"/>
	<path id="XMLID_41_" class="st1" d="M59,30.6v-5.5c1,0.8,2.1,1.5,3.2,1.9c1.2,0.4,2.3,0.6,3.5,0.6c0.7,0,1.3-0.1,1.8-0.2
		c0.5-0.1,1-0.3,1.3-0.5c0.3-0.2,0.6-0.5,0.8-0.8c0.2-0.3,0.3-0.6,0.3-1c0-0.5-0.1-0.9-0.4-1.3s-0.6-0.7-1.1-1
		c-0.5-0.3-1-0.6-1.7-0.9s-1.4-0.6-2.1-0.9c-1.9-0.8-3.3-1.8-4.3-2.9c-0.9-1.2-1.4-2.5-1.4-4.2c0-1.3,0.3-2.4,0.8-3.3
		c0.5-0.9,1.2-1.7,2.1-2.3c0.9-0.6,1.9-1,3.1-1.3c1.2-0.3,2.4-0.4,3.7-0.4c1.3,0,2.4,0.1,3.4,0.2c1,0.2,1.9,0.4,2.7,0.7v5.1
		c-0.4-0.3-0.9-0.5-1.3-0.8c-0.5-0.2-1-0.4-1.5-0.5c-0.5-0.1-1-0.2-1.5-0.3c-0.5-0.1-1-0.1-1.4-0.1c-0.6,0-1.2,0.1-1.7,0.2
		c-0.5,0.1-0.9,0.3-1.3,0.5c-0.4,0.2-0.6,0.5-0.8,0.8s-0.3,0.6-0.3,1c0,0.4,0.1,0.8,0.3,1.1c0.2,0.3,0.5,0.6,0.9,0.9
		c0.4,0.3,0.9,0.6,1.5,0.9s1.2,0.6,1.9,0.9c1,0.4,1.9,0.8,2.6,1.3c0.8,0.5,1.5,1,2,1.6s1,1.2,1.3,2c0.3,0.7,0.4,1.6,0.4,2.6
		c0,1.4-0.3,2.5-0.8,3.4c-0.5,0.9-1.2,1.7-2.1,2.3c-0.9,0.6-1.9,1-3.1,1.2C68.6,31.9,67.3,32,66,32c-1.3,0-2.6-0.1-3.8-0.3
		S59.9,31.1,59,30.6z M73.1,0.6l-4.9,4.7h-0.8l-4.7-4.7L66,1l1.8,1.1l2-1.2L73.1,0.6z"/>
	<path id="XMLID_44_" class="st1" d="M101.4,31.6h-6l-1.7-5.5h-8.7l-1.7,5.5h-6L86.1,7h6.6L101.4,31.6z M92.4,21.9l-2.6-8.2
		c-0.2-0.6-0.3-1.4-0.4-2.2h-0.1c-0.1,0.7-0.2,1.4-0.4,2.1l-2.7,8.3H92.4z"/>
</g>
<g id="XMLID_10_">
	<path id="XMLID_11_" class="st2" d="M43.9,47.7L43.9,47.7l-0.1,11.2h-1.6V33.3h1.6v3.6h0.1c0.6-1.3,1.5-2.3,2.7-3
		c1.2-0.7,2.5-1.1,3.9-1.1c2.2,0,4,0.8,5.2,2.3c1.2,1.5,1.9,3.6,1.9,6.3c0,2.9-0.7,5.3-2.1,7.1c-1.4,1.8-3.3,2.7-5.7,2.7
		C47.1,51.3,45.1,50.1,43.9,47.7z M43.8,41.2v2.2c0,1.8,0.6,3.3,1.7,4.5c1.1,1.3,2.6,1.9,4.4,1.9c1.8,0,3.2-0.8,4.4-2.3
		c1.1-1.5,1.7-3.6,1.7-6c0-2.2-0.5-3.9-1.5-5.2c-1-1.3-2.4-1.9-4.1-1.9c-2,0-3.6,0.7-4.7,2.1S43.8,39.4,43.8,41.2z"/>
	<path id="XMLID_14_" class="st2" d="M70.1,35c-0.5-0.4-1.1-0.6-1.8-0.6c-1.4,0-2.5,0.7-3.5,2.1s-1.4,3.5-1.4,6.1v8.2h-1.5V33.3h1.5
		v3.9h0.1c0.4-1.3,1-2.4,1.9-3.1c0.9-0.7,1.9-1.1,3-1.1c0.7,0,1.2,0.1,1.7,0.3V35z"/>
	<path id="XMLID_16_" class="st2" d="M79.8,51.3c-2.6,0-4.6-0.8-6.1-2.5s-2.2-3.9-2.2-6.6c0-2.9,0.8-5.2,2.3-6.8
		c1.6-1.6,3.6-2.5,6.2-2.5c2.5,0,4.5,0.8,5.9,2.4c1.4,1.6,2.2,3.9,2.2,6.8c0,2.7-0.7,4.9-2.2,6.6C84.4,50.4,82.3,51.3,79.8,51.3z
		 M79.9,34.3c-2.1,0-3.7,0.7-4.9,2.1c-1.2,1.4-1.8,3.3-1.8,5.8c0,2.3,0.6,4.1,1.8,5.5c1.2,1.4,2.8,2.1,4.9,2.1
		c2.1,0,3.7-0.7,4.9-2.1c1.1-1.4,1.7-3.3,1.7-5.7c0-2.5-0.6-4.4-1.7-5.8C83.6,35,82,34.3,79.9,34.3z"/>
	<path id="XMLID_19_" class="st2" d="M104.9,50.9v-3.2h-0.1c-0.6,1.1-1.4,2-2.5,2.6s-2.4,1-3.8,1c-2.2,0-3.9-0.8-5.3-2.4
		c-1.4-1.6-2-3.7-2-6.5c0-2.8,0.7-5.1,2.2-6.9c1.5-1.7,3.4-2.6,5.8-2.6c2.6,0,4.5,1.1,5.6,3.2h0.1V24.9h1.6v25.9H104.9z M104.9,40.2
		c0-1.6-0.5-3-1.5-4.2c-1-1.1-2.4-1.7-4.2-1.7c-1.8,0-3.4,0.7-4.6,2.1c-1.2,1.4-1.8,3.3-1.8,5.8c0,2.4,0.5,4.3,1.6,5.6
		c1.1,1.3,2.5,2,4.2,2c2,0,3.5-0.6,4.6-1.9c1.1-1.2,1.6-2.7,1.6-4.5V40.2z"/>
	<path id="XMLID_22_" class="st2" d="M122.5,50.9v-3.5h-0.1c-0.6,1.2-1.4,2.2-2.4,2.9c-1.1,0.7-2.3,1.1-3.6,1.1c-1.7,0-3-0.5-4-1.4
		s-1.5-2.1-1.5-3.5c0-3.1,2-4.9,6.1-5.5l5.4-0.8c0-3.8-1.4-5.6-4.2-5.6c-1.9,0-3.8,0.8-5.6,2.3v-1.9c0.7-0.5,1.5-1,2.6-1.3
		s2.2-0.5,3.1-0.5c1.8,0,3.2,0.6,4.2,1.7c1,1.1,1.5,2.7,1.5,4.9v11.4H122.5z M117.7,42.1c-1.8,0.3-3.1,0.7-3.9,1.3
		c-0.7,0.6-1.1,1.5-1.1,2.9c0,1,0.3,1.9,1,2.6s1.7,1,2.9,1c1.7,0,3.1-0.6,4.2-1.9c1.1-1.3,1.7-2.9,1.7-4.8v-1.7L117.7,42.1z"/>
	<path id="XMLID_25_" class="st2" d="M135.1,50.9h-1.4l-6.8-17.5h1.8l5.2,13.9c0.3,0.7,0.4,1.3,0.5,1.8h0.1c0.1-0.7,0.3-1.3,0.5-1.8
		l5.4-14h1.7L135.1,50.9z"/>
	<path id="XMLID_27_" class="st2" d="M157.2,50.9V40.7c0-4.2-1.5-6.3-4.6-6.3c-1.7,0-3.1,0.6-4.2,1.9c-1.1,1.2-1.6,2.8-1.6,4.6v10.1
		h-1.6V33.3h1.6v3.2h0.1c1.3-2.4,3.3-3.6,6-3.6c1.9,0,3.3,0.6,4.3,1.9s1.5,3.1,1.5,5.4v10.7H157.2z"/>
	<path id="XMLID_29_" class="st2" d="M164.8,28.9c-0.3,0-0.6-0.1-0.9-0.4c-0.3-0.3-0.4-0.6-0.4-1c0-0.4,0.1-0.7,0.4-0.9
		c0.3-0.2,0.6-0.3,0.9-0.3c0.4,0,0.7,0.1,0.9,0.3c0.3,0.2,0.4,0.5,0.4,0.9c0,0.4-0.1,0.7-0.4,0.9S165.1,28.9,164.8,28.9z M164,50.9
		V33.3h1.6v17.5H164z"/>
	<path id="XMLID_32_" class="st2" d="M182.5,50.1c-1.3,0.8-2.9,1.2-4.7,1.2c-2.4,0-4.3-0.8-5.8-2.5c-1.5-1.6-2.2-3.8-2.2-6.4
		c0-2.8,0.8-5.1,2.5-6.8c1.6-1.8,3.8-2.7,6.3-2.7c1.3,0,2.6,0.3,3.9,0.8v1.8c-1.3-0.8-2.6-1.2-4.1-1.2c-2.1,0-3.7,0.7-5,2.2
		c-1.3,1.5-1.9,3.4-1.9,5.7c0,2.3,0.6,4.1,1.8,5.5s2.7,2.1,4.6,2.1c1.8,0,3.3-0.5,4.6-1.4V50.1z"/>
	<path id="XMLID_34_" class="st2" d="M197.2,50.9v-3.5h-0.1c-0.6,1.2-1.4,2.2-2.4,2.9c-1.1,0.7-2.3,1.1-3.6,1.1c-1.7,0-3-0.5-4-1.4
		c-1-0.9-1.5-2.1-1.5-3.5c0-3.1,2-4.9,6.1-5.5l5.4-0.8c0-3.8-1.4-5.6-4.2-5.6c-1.9,0-3.8,0.8-5.6,2.3v-1.9c0.7-0.5,1.5-1,2.6-1.3
		s2.2-0.5,3.1-0.5c1.8,0,3.2,0.6,4.2,1.7s1.5,2.7,1.5,4.9v11.4H197.2z M192.4,42.1c-1.8,0.3-3.1,0.7-3.9,1.3
		c-0.7,0.6-1.1,1.5-1.1,2.9c0,1,0.3,1.9,1,2.6s1.7,1,2.9,1c1.7,0,3.1-0.6,4.2-1.9c1.1-1.3,1.7-2.9,1.7-4.8v-1.7L192.4,42.1z"/>
</g>
</svg>
